{
	"asset": {
		"generator": "Sein.js Toolkit",
		"extras": {
			"exporterVersion" : "0.90"
		},
		"version": "2.0"
	},
	"accessors": [
		{
			"bufferView": 2,
			"byteOffset": 0,
			"componentType": 5126,
			"count": 1005,
			"max": [ 0.02626579, 0.134429, 0.0257467 ],
			"min": [ -0.0255283, 0.1290024, -0.02606381 ],
			"type": "VEC3"
		},
		{
			"bufferView": 2,
			"byteOffset": 12060,
			"componentType": 5126,
			"count": 1005,
			"max": [ 0.9928777, 0.999941, 0.9860269 ],
			"min": [ -0.982908, -0.4237645, -0.9974051 ],
			"type": "VEC3"
		},
		{
			"bufferView": 1,
			"byteOffset": 0,
			"componentType": 5126,
			"count": 1005,
			"max": [ 0.2519179, 0.9967926 ],
			"min": [ 0.003214826, 0.7443634 ],
			"type": "VEC2"
		},
		{
			"bufferView": 3,
			"byteOffset": 0,
			"componentType": 5126,
			"count": 1005,
			"max": [ 0.4074978, 0.998446, 0.4435822, 1 ],
			"min": [ -0.9995545, -0.9826427, -0.9858664, 1 ],
			"type": "VEC4"
		},
		{
			"bufferView": 0,
			"byteOffset": 0,
			"componentType": 5123,
			"count": 5448,
			"max": [ 1004 ],
			"min": [ 0 ],
			"type": "SCALAR"
		},
		{
			"bufferView": 2,
			"byteOffset": 24120,
			"componentType": 5126,
			"count": 1678,
			"max": [ 0.02667567, 0.1319886, 0.02649402 ],
			"min": [ -0.02668111, 9.317367E-05, -0.02648299 ],
			"type": "VEC3"
		},
		{
			"bufferView": 2,
			"byteOffset": 44256,
			"componentType": 5126,
			"count": 1678,
			"max": [ 0.9985831, 0.257916, 0.9991511 ],
			"min": [ -0.9999644, -0.9999928, -0.9980801 ],
			"type": "VEC3"
		},
		{
			"bufferView": 1,
			"byteOffset": 8040,
			"componentType": 5126,
			"count": 1678,
			"max": [ 0.9979195, 0.9941934 ],
			"min": [ 0.002919517, 0.003326821 ],
			"type": "VEC2"
		},
		{
			"bufferView": 3,
			"byteOffset": 16080,
			"componentType": 5126,
			"count": 1678,
			"max": [ 0.9994056, 0.9405962, 0.9999878, 1 ],
			"min": [ -0.997841, -0.9216923, -0.9995185, 1 ],
			"type": "VEC4"
		},
		{
			"bufferView": 0,
			"byteOffset": 10896,
			"componentType": 5123,
			"count": 3234,
			"max": [ 555 ],
			"min": [ 0 ],
			"type": "SCALAR"
		},
		{
			"bufferView": 0,
			"byteOffset": 17364,
			"componentType": 5123,
			"count": 6336,
			"max": [ 1677 ],
			"min": [ 556 ],
			"type": "SCALAR"
		}
	],
	"buffers": [
		{
			"byteLength": 158820,
			"uri": "coffee.bin"
		}
	],
	"bufferViews": [
		{
			"buffer": 0,
			"byteLength": 30036,
			"target": 34963,
			"byteOffset": 128784
		},
		{
			"buffer": 0,
			"byteLength": 21464,
			"target": 34962,
			"byteStride": 8,
			"byteOffset": 0
		},
		{
			"buffer": 0,
			"byteLength": 64392,
			"target": 34962,
			"byteStride": 12,
			"byteOffset": 21464
		},
		{
			"buffer": 0,
			"byteLength": 42928,
			"target": 34962,
			"byteStride": 16,
			"byteOffset": 85856
		}
	],
	"extensionsRequired": [
		"Sein_node",
		"Sein_physicBody",
		"Sein_animator",
		"Sein_customMaterial",
		"Sein_renderer",
		"Sein_imageBasedLighting"
	],
	"extensionsUsed": [
		"Sein_node",
		"Sein_physicBody",
		"Sein_animator",
		"Sein_customMaterial",
		"Sein_renderer",
		"Sein_imageBasedLighting"
	],
	"images": [
		{
			"uri": "assets__240ml/mailong_manteningnatiekafeiyinliaonongkafeiyinliao_240ml.jpg"
		}
	],
	"extensions": {
		"Sein_imageBasedLighting": {
			"lights": [
				{
					"diffuse": {
						"type": "SH",
						"intensity": 1,
						"coefficients": [
							[0.5858792,0.5439471,0.5483776],
							[0.427275,0.307677,0.2612042],
							[-0.07313305,-0.02465909,0.02407067],
							[0.5743079,0.6516716,0.7621914],
							[0.2916802,0.3215659,0.4032061],
							[-0.1418367,-0.07918394,-0.03245671],
							[-0.07955239,-0.06233507,-0.05837115],
							[-0.09212901,-0.07293615,-0.03680576],
							[0.04323162,0.1426314,0.2169128]
						]
					},
					"specular": {
						"type": "CUBE",
						"intensity": 4,
						"brdfLUT": 0,
						"faces": [1,2,3,4,5,6]
					}
				}

			]
		}
	},
	"materials": [
		{
			"pbrMetallicRoughness": {
				"baseColorFactor": [0.6415094, 0.6415094, 0.6415094, 1],
				"metallicFactor": 0.56,
				"roughnessFactor": 0
				},
				"extensions": {
					"Sein_imageBasedLighting": {
						"type": "ALL",
						"light": 0
					}

			},
			"alphaMode": "MASK",
			"alphaCutoff": 0.488,
			"emissiveFactor": [0, 0, 0],
			"doubleSided": false,
			"name": "_bak"
		},
		{
			"pbrMetallicRoughness": {
				"baseColorTexture" : {
					"index" : 1,
					"texCoord" : 0
				},
				"baseColorFactor": [1, 1, 1, 1],
				"metallicFactor": 0.56,
				"roughnessFactor": 0
				},
				"extensions": {
					"Sein_imageBasedLighting": {
						"type": "ALL",
						"light": 0
					}

			},
			"emissiveFactor": [0, 0, 0],
			"doubleSided": false,
			"name": "mailong_manteningnatiekafeiyinliaonongkafeiyinliao_240ml_bak"
		}
	],
	"meshes": [
		{
			"name": "bottleCap",
			"primitives": [
				{
					"attributes":{
						"POSITION": 0,
						"NORMAL": 1,
						"TEXCOORD_0": 2,
						"TANGENT": 3
					},
					"indices": 4,
					"material": 0,
					"mode": 4
				}
			]
		},
		{
			"name": "bottle",
			"primitives": [
				{
					"attributes":{
						"POSITION": 5,
						"NORMAL": 6,
						"TEXCOORD_0": 7,
						"TANGENT": 8
					},
					"indices": 9,
					"material": 1,
					"mode": 4
				},
				{
					"attributes":{
						"POSITION": 5,
						"NORMAL": 6,
						"TEXCOORD_0": 7,
						"TANGENT": 8
					},
					"indices": 10,
					"material": 1,
					"mode": 4
				}
			]
		}
	],
	"nodes": [
		{
			"name": "bottleCap",
			"mesh": 0
,
			"extensions": {
				"Sein_renderer": {
					"castShadows": true,
					"receiveShadows": true,
					"gammaCorrection": true
				}
			}
		},
		{
			"name": "麦隆_麦隆曼特宁拿铁咖啡饮料浓咖啡饮料_240ml",
			"children": [
				2,
				0
			],
			"matrix": [1, 0, 0, 0, 0, 1, 0, 0, 0, 0, 1, 0, 0, 0, 0, 1]
,
			"extensions": {
				"Sein_node": {
					"selfType": 2,
					"childrenType": 1,
					"className": "",
					"tag": "",
					"layer": 268435455,
					"persistent": false,
					"emitComponentsDestroy": true,
					"updateOnEverTick": true,
					"isStatic": false,
					"skipThisNode": false
				}
			}
		},
		{
			"name": "bottle",
			"mesh": 1
,
			"extensions": {
				"Sein_renderer": {
					"castShadows": true,
					"receiveShadows": true,
					"gammaCorrection": true
				}
			}
		}
	],
	"samplers": [
		{
			"magFilter": 9729,
			"minFilter": 9985,
			"wrapS": 10497,
			"wrapT": 10497
		}
	],
	"scenes": [
		{
			"name":"defaultScene",
			"nodes": [
				1
			]
		}
	],
	"scene": 0,
	"textures": [
		{
			"sampler": 0,
			"source": 0
		},
		{
			"sampler": 0,
			"source": 0
		}
	]
}
