{
	"asset": {
		"generator": "Sein.js Toolkit",
		"extras": {
			"exporterVersion" : "0.90"
		},
		"version": "2.0"
	},
	"accessors": [
		{
			"bufferView": 2,
			"byteOffset": 0,
			"componentType": 5126,
			"count": 4788,
			"max": [ 0.03208589, 0.1967306, 0.03204568 ],
			"min": [ -0.0321052, 3.245739E-05, -0.03213571 ],
			"type": "VEC3"
		},
		{
			"bufferView": 2,
			"byteOffset": 57456,
			"componentType": 5126,
			"count": 4788,
			"max": [ 0.9993687, 1, 0.9996686 ],
			"min": [ -0.9999926, -0.9999998, -0.9999384 ],
			"type": "VEC3"
		},
		{
			"bufferView": 1,
			"byteOffset": 0,
			"componentType": 5126,
			"count": 4788,
			"max": [ 0.9975, 0.9829171 ],
			"min": [ 0.0025, 0.00654462 ],
			"type": "VEC2"
		},
		{
			"bufferView": 3,
			"byteOffset": 0,
			"componentType": 5126,
			"count": 4788,
			"max": [ 0.9990417, 0.7506245, 1, 1 ],
			"min": [ -1, -0.8261415, -0.9998446, -1 ],
			"type": "VEC4"
		},
		{
			"bufferView": 0,
			"byteOffset": 0,
			"componentType": 5123,
			"count": 10566,
			"max": [ 1880 ],
			"min": [ 0 ],
			"type": "SCALAR"
		},
		{
			"bufferView": 0,
			"byteOffset": 21132,
			"componentType": 5123,
			"count": 3420,
			"max": [ 2438 ],
			"min": [ 148 ],
			"type": "SCALAR"
		},
		{
			"bufferView": 0,
			"byteOffset": 27972,
			"componentType": 5123,
			"count": 13356,
			"max": [ 4787 ],
			"min": [ 2439 ],
			"type": "SCALAR"
		},
		{
			"bufferView": 2,
			"byteOffset": 114912,
			"componentType": 5126,
			"count": 468,
			"max": [ 0.01562875, 0.01671007, 0.01540539 ],
			"min": [ -0.01562875, -9.300232E-05, -0.0154054 ],
			"type": "VEC3"
		},
		{
			"bufferView": 2,
			"byteOffset": 120528,
			"componentType": 5126,
			"count": 468,
			"max": [ 0.997196, 0.9999993, 0.9976045 ],
			"min": [ -0.9982662, -0.1341338, -0.997063 ],
			"type": "VEC3"
		},
		{
			"bufferView": 1,
			"byteOffset": 38304,
			"componentType": 5126,
			"count": 468,
			"max": [ 0.2391203, 0.9619826 ],
			"min": [ 0.01794502, 0.7382662 ],
			"type": "VEC2"
		},
		{
			"bufferView": 3,
			"byteOffset": 76608,
			"componentType": 5126,
			"count": 468,
			"max": [ 0.07836755, 0.9997538, 0.1484871, 1 ],
			"min": [ -0.9974209, -0.9996842, -0.997244, 1 ],
			"type": "VEC4"
		},
		{
			"bufferView": 0,
			"byteOffset": 54684,
			"componentType": 5123,
			"count": 2496,
			"max": [ 467 ],
			"min": [ 0 ],
			"type": "SCALAR"
		}
	],
	"buffers": [
		{
			"byteLength": 311964,
			"uri": "scene.bin"
		}
	],
	"bufferViews": [
		{
			"buffer": 0,
			"byteLength": 59676,
			"target": 34963,
			"byteOffset": 252288
		},
		{
			"buffer": 0,
			"byteLength": 42048,
			"target": 34962,
			"byteStride": 8,
			"byteOffset": 0
		},
		{
			"buffer": 0,
			"byteLength": 126144,
			"target": 34962,
			"byteStride": 12,
			"byteOffset": 42048
		},
		{
			"buffer": 0,
			"byteLength": 84096,
			"target": 34962,
			"byteStride": 16,
			"byteOffset": 168192
		}
	],
	"extensionsRequired": [
		"Sein_node",
		"Sein_physicBody",
		"Sein_animator",
		"Sein_customMaterial",
		"Sein_renderer",
		"Sein_imageBasedLighting",
		"KHR_lights_punctual",
		"KHR_materials_pbrSpecularGlossiness"
	],
	"extensionsUsed": [
		"Sein_node",
		"Sein_physicBody",
		"Sein_animator",
		"Sein_customMaterial",
		"Sein_renderer",
		"Sein_imageBasedLighting",
		"KHR_lights_punctual",
		"KHR_materials_pbrSpecularGlossiness"
	],
	"images": [
		{
			"uri": "assetsseinjsunitytoolkitshaders/brdflut.jpg"
		},
		{
			"uri": "assetsscenessamplescene/reflectionprobe-00.png"
		},
		{
			"uri": "assetsscenessamplescene/reflectionprobe-01.png"
		},
		{
			"uri": "assetsscenessamplescene/reflectionprobe-02.png"
		},
		{
			"uri": "assetsscenessamplescene/reflectionprobe-03.png"
		},
		{
			"uri": "assetsscenessamplescene/reflectionprobe-04.png"
		},
		{
			"uri": "assetsscenessamplescene/reflectionprobe-05.png"
		},
		{
			"uri": "assets20190621__500ml/__500ml.jpg"
		}
	],
	"extensions": {
		"Sein_imageBasedLighting": {
			"lights": [
				{
					"diffuse": {
						"type": "SH",
						"intensity": 1,
						"coefficients": [
							[0.5858792,0.5439471,0.5483776],
							[0.427275,0.307677,0.2612042],
							[-0.07313305,-0.02465909,0.02407067],
							[0.5743079,0.6516716,0.7621914],
							[0.2916802,0.3215659,0.4032061],
							[-0.1418367,-0.07918394,-0.03245671],
							[-0.07955239,-0.06233507,-0.05837115],
							[-0.09212901,-0.07293615,-0.03680576],
							[0.04323162,0.1426314,0.2169128]
						]
					},
					"specular": {
						"type": "CUBE",
						"intensity": 4,
						"brdfLUT": 0,
						"faces": [1,2,3,4,5,6]
					}
				}

			]
		}
	},
	"materials": [
		{
			"extensions": {
				"KHR_materials_pbrSpecularGlossiness": {
					"diffuseFactor": [1, 1, 1, 0.3],
					"specularFactor": [1, 1, 1],
					"glossinessFactor": 0.837					}
,
				"Sein_imageBasedLighting": {
					"type": "ALL",
					"light": 0
				}

			},
			"alphaMode": "BLEND",
			"emissiveFactor": [0, 0, 0],
			"doubleSided": true,
			"name": "pingshen"
		},
		{
			"extensions": {
				"KHR_materials_pbrSpecularGlossiness": {
					"diffuseTexture" : {
						"index" : 1,
						"texCoord" : 0
					},
					"diffuseFactor": [0.7924528, 0.7924528, 0.7924528, 1],
					"specularFactor": [0.1,0.1,0.1],
					"glossinessFactor": 1				}
,
				"Sein_imageBasedLighting": {
					"type": "ALL",
					"light": 0
				}

			},
			"emissiveFactor": [0, 0, 0],
			"doubleSided": true,
			"name": "__500ml"
		},
		{
			"pbrMetallicRoughness": {
				"baseColorFactor": [0.3005, 0.3585, 0, 0.282]
			},
			"doubleSided": false,
			"alphaMode": "BLEND",
			"name": "shui"
		},
		{
			"pbrMetallicRoughness": {
				"baseColorTexture" : {
					"index" : 1,
					"texCoord" : 0
				},
				"baseColorFactor": [0.8773585, 0.8773585, 0.8773585, 1],
				"metallicFactor": 0,
				"roughnessFactor": 0.64
				},
				"extensions": {
					"Sein_imageBasedLighting": {
						"type": "ALL",
						"light": 0
					}

			},
			"emissiveFactor": [0.2,0.2,0.2],
			"doubleSided": true,
			"name": ""
		}
	],
	"meshes": [
		{
			"name": "bottle",
			"primitives": [
				{
					"attributes":{
						"POSITION": 0,
						"NORMAL": 1,
						"TEXCOORD_0": 2,
						"TANGENT": 3
					},
					"indices": 4,
					"material": 0,
					"mode": 4
				},
				{
					"attributes":{
						"POSITION": 0,
						"NORMAL": 1,
						"TEXCOORD_0": 2,
						"TANGENT": 3
					},
					"indices": 5,
					"material": 1,
					"mode": 4
				},
				{
					"attributes":{
						"POSITION": 0,
						"NORMAL": 1,
						"TEXCOORD_0": 2,
						"TANGENT": 3
					},
					"indices": 6,
					"material": 2,
					"mode": 4
				}
			]
		},
		{
			"name": "bottleCap",
			"primitives": [
				{
					"attributes":{
						"POSITION": 7,
						"NORMAL": 8,
						"TEXCOORD_0": 9,
						"TANGENT": 10
					},
					"indices": 11,
					"material": 3,
					"mode": 4
				}
			]
		}
	],
	"nodes": [
		{
			"name": "三得利_三得利乌龙茶饮料_500ml",
			"children": [
				1,
				2
			],
			"matrix": [1, 0, 0, 0, 0, 1, 0, 0, 0, 0, 1, 0, 0, 0, 0, 1]
,
			"extensions": {
				"Sein_node": {
					"selfType": 2,
					"childrenType": 1,
					"className": "",
					"tag": "",
					"layer": 268435455,
					"persistent": false,
					"emitComponentsDestroy": true,
					"updateOnEverTick": true,
					"isStatic": false,
					"skipThisNode": false
				}
			}
		},
		{
			"name": "bottle",
			"mesh": 0
,
			"extensions": {
				"Sein_renderer": {
					"castShadows": true,
					"receiveShadows": true,
					"gammaCorrection": true
				}
			}
		},
		{
			"name": "bottleCap",
			"mesh": 1,
			"translation": [ -0.0002046356, 0.1963041, 0.0009556579]
,
			"extensions": {
				"Sein_renderer": {
					"castShadows": true,
					"receiveShadows": true,
					"gammaCorrection": true
				}
			}
		}
	],
	"samplers": [
		{
			"magFilter": 9729,
			"minFilter": 9985,
			"wrapS": 10497,
			"wrapT": 10497
		}
	],
	"scenes": [
		{
			"name":"defaultScene",
			"nodes": [
				0
			]
		}
	],
	"scene": 0,
	"textures": [
		{
			"sampler": 0,
			"source": 0
		},
		{
			"sampler": 0,
			"source": 7
		}
	]
}
