{
	"asset": {
		"generator": "Sein.js Toolkit",
		"extras": {
			"exporterVersion" : "0.90"
		},
		"version": "2.0"
	},
	"accessors": [
		{
			"bufferView": 2,
			"byteOffset": 0,
			"componentType": 5126,
			"count": 223,
			"max": [ 0.01447974, 0.008917206, 0.011917 ],
			"min": [ -0.01202349, -0.0005753784, -0.01459446 ],
			"type": "VEC3"
		},
		{
			"bufferView": 2,
			"byteOffset": 2676,
			"componentType": 5126,
			"count": 223,
			"max": [ 0.9939781, 0.99997, 0.9996895 ],
			"min": [ -0.995087, -0.5366156, -0.9883291 ],
			"type": "VEC3"
		},
		{
			"bufferView": 1,
			"byteOffset": 0,
			"componentType": 5126,
			"count": 223,
			"max": [ 0.1528848, 0.9944139 ],
			"min": [ 0.00250002, 0.8436032 ],
			"type": "VEC2"
		},
		{
			"bufferView": 3,
			"byteOffset": 0,
			"componentType": 5126,
			"count": 223,
			"max": [ 0.9999319, 0.9991428, 0.7066535, 1 ],
			"min": [ -0.2593825, -0.9956665, -0.6714548, 1 ],
			"type": "VEC4"
		},
		{
			"bufferView": 0,
			"byteOffset": 0,
			"componentType": 5123,
			"count": 1242,
			"max": [ 222 ],
			"min": [ 0 ],
			"type": "SCALAR"
		},
		{
			"bufferView": 2,
			"byteOffset": 5352,
			"componentType": 5126,
			"count": 4008,
			"max": [ 0.03040843, 0.2133963, 0.03189192 ],
			"min": [ -0.03194396, 0.0001764752, -0.03048675 ],
			"type": "VEC3"
		},
		{
			"bufferView": 2,
			"byteOffset": 53448,
			"componentType": 5126,
			"count": 4008,
			"max": [ 0.9993756, 1, 0.9997733 ],
			"min": [ -0.9993668, -0.9999428, -0.9995697 ],
			"type": "VEC3"
		},
		{
			"bufferView": 1,
			"byteOffset": 1784,
			"componentType": 5126,
			"count": 4008,
			"max": [ 0.9974999, 0.9948459 ],
			"min": [ 0.002499908, 0.00430605 ],
			"type": "VEC2"
		},
		{
			"bufferView": 3,
			"byteOffset": 3568,
			"componentType": 5126,
			"count": 4008,
			"max": [ 1, 0.6873613, 0.9998938, 1 ],
			"min": [ -0.9997968, -0.6291629, -0.9996921, -1 ],
			"type": "VEC4"
		},
		{
			"bufferView": 0,
			"byteOffset": 2484,
			"componentType": 5123,
			"count": 9240,
			"max": [ 1683 ],
			"min": [ 0 ],
			"type": "SCALAR"
		},
		{
			"bufferView": 0,
			"byteOffset": 20964,
			"componentType": 5123,
			"count": 3090,
			"max": [ 2158 ],
			"min": [ 1 ],
			"type": "SCALAR"
		},
		{
			"bufferView": 0,
			"byteOffset": 27144,
			"componentType": 5123,
			"count": 10410,
			"max": [ 4007 ],
			"min": [ 2159 ],
			"type": "SCALAR"
		}
	],
	"buffers": [
		{
			"byteLength": 251052,
			"uri": "peel.bin"
		}
	],
	"bufferViews": [
		{
			"buffer": 0,
			"byteLength": 47964,
			"target": 34963,
			"byteOffset": 203088
		},
		{
			"buffer": 0,
			"byteLength": 33848,
			"target": 34962,
			"byteStride": 8,
			"byteOffset": 0
		},
		{
			"buffer": 0,
			"byteLength": 101544,
			"target": 34962,
			"byteStride": 12,
			"byteOffset": 33848
		},
		{
			"buffer": 0,
			"byteLength": 67696,
			"target": 34962,
			"byteStride": 16,
			"byteOffset": 135392
		}
	],
	"extensionsRequired": [
		"Sein_node",
		"Sein_physicBody",
		"Sein_animator",
		"Sein_customMaterial",
		"Sein_renderer",
		"Sein_imageBasedLighting"
	],
	"extensionsUsed": [
		"Sein_node",
		"Sein_physicBody",
		"Sein_animator",
		"Sein_customMaterial",
		"Sein_renderer",
		"Sein_imageBasedLighting"
	],
	"images": [
		{
			"uri": "assets1664_1664_330ml/1664_baipi_330ml.jpg"
		},
		{
			"uri": "assetsseinjsunitytoolkitshaders/brdflut.jpg"
		},
		{
			"uri": "assetsscenessamplescene/reflectionprobe-00.png"
		},
		{
			"uri": "assetsscenessamplescene/reflectionprobe-01.png"
		},
		{
			"uri": "assetsscenessamplescene/reflectionprobe-02.png"
		},
		{
			"uri": "assetsscenessamplescene/reflectionprobe-03.png"
		},
		{
			"uri": "assetsscenessamplescene/reflectionprobe-04.png"
		},
		{
			"uri": "assetsscenessamplescene/reflectionprobe-05.png"
		}
	],
	"extensions": {
		"Sein_imageBasedLighting": {
			"lights": [
				{
					"diffuse": {
						"type": "SH",
						"intensity": 1,
						"coefficients": [
							[0.5858792,0.5439471,0.5483776],
							[0.427275,0.307677,0.2612042],
							[-0.07313305,-0.02465909,0.02407067],
							[0.5743079,0.6516716,0.7621914],
							[0.2916802,0.3215659,0.4032061],
							[-0.1418367,-0.07918394,-0.03245671],
							[-0.07955239,-0.06233507,-0.05837115],
							[-0.09212901,-0.07293615,-0.03680576],
							[0.04323162,0.1426314,0.2169128]
						]
					},
					"specular": {
						"type": "CUBE",
						"intensity": 4,
						"brdfLUT": 1,
						"faces": [2,3,4,5,6,7]
					}
				}

			]
		}
	},
	"materials": [
		{
			"pbrMetallicRoughness": {
				"baseColorTexture" : {
					"index" : 0,
					"texCoord" : 0
				},
				"baseColorFactor": [1, 1, 1, 1],
				"metallicFactor": 0.507,
				"roughnessFactor": 0.241
				},
				"extensions": {
					"Sein_imageBasedLighting": {
						"type": "ALL",
						"light": 0
					}

			},
			"emissiveFactor": [0, 0, 0],
			"doubleSided": false,
			"name": ""
		},
		{
			"pbrMetallicRoughness": {
				"baseColorFactor": [1, 1, 1, 0.5],
				"metallicFactor": 1,
				"roughnessFactor": 0
				},
				"extensions": {
					"Sein_imageBasedLighting": {
						"type": "ALL",
						"light": 0
					}

			},
			"alphaMode": "BLEND",
			"emissiveFactor": [0, 0, 0],
			"doubleSided": false,
			"name": "pingshen"
		},
		{
			"pbrMetallicRoughness": {
				"baseColorTexture" : {
					"index" : 0,
					"texCoord" : 0
				},
				"baseColorFactor": [1, 1, 1, 1],
				"metallicFactor": 0.5,
				"roughnessFactor": 0.51
				},
				"extensions": {
					"Sein_imageBasedLighting": {
						"type": "ALL",
						"light": 0
					}

			},
			"emissiveFactor": [0, 0, 0],
			"doubleSided": false,
			"name": "1664_1664_330ml"
		},
		{
				"pbrMetallicRoughness": {
							"baseColorFactor": [0.09804, 0.04314, 0.04314, 0.5]
				},
			"alphaMode": "BLEND",
			"doubleSided": false,
			"name": "shui"
		}
	],
	"meshes": [
		{
			"name": "bottleCap",
			"primitives": [
				{
					"attributes":{
						"POSITION": 0,
						"NORMAL": 1,
						"TEXCOORD_0": 2,
						"TANGENT": 3
					},
					"indices": 4,
					"material": 0,
					"mode": 4
				}
			]
		},
		{
			"name": "bottle",
			"primitives": [
				{
					"attributes":{
						"POSITION": 5,
						"NORMAL": 6,
						"TEXCOORD_0": 7,
						"TANGENT": 8
					},
					"indices": 9,
					"material": 1,
					"mode": 4
				},
				{
					"attributes":{
						"POSITION": 5,
						"NORMAL": 6,
						"TEXCOORD_0": 7,
						"TANGENT": 8
					},
					"indices": 10,
					"material": 2,
					"mode": 4
				},
				{
					"attributes":{
						"POSITION": 5,
						"NORMAL": 6,
						"TEXCOORD_0": 7,
						"TANGENT": 8
					},
					"indices": 11,
					"material": 3,
					"mode": 4
				}
			]
		}
	],
	"nodes": [
		{
			"name": "bottleCap",
			"mesh": 0,
			"translation": [ 0, 0.2128391, -9.30349E-09]
,
			"extensions": {
				"Sein_renderer": {
					"castShadows": true,
					"receiveShadows": true,
					"gammaCorrection": true
				}
			}
		},
		{
			"name": "1664_1664白啤_330ml",
			"children": [
				2,
				0
			],
			"matrix": [1, 0, 0, 0, 0, 1, 0, 0, 0, 0, 1, 0, 0, 0, 0, 1]
,
			"extensions": {
				"Sein_node": {
					"selfType": 2,
					"childrenType": 1,
					"className": "",
					"tag": "",
					"layer": 268435455,
					"persistent": false,
					"emitComponentsDestroy": true,
					"updateOnEverTick": true,
					"isStatic": false,
					"skipThisNode": false
				}
			}
		},
		{
			"name": "bottle",
			"mesh": 1
,
			"extensions": {
				"Sein_renderer": {
					"castShadows": true,
					"receiveShadows": true,
					"gammaCorrection": true
				}
			}
		}
	],
	"samplers": [
		{
			"magFilter": 9729,
			"minFilter": 9985,
			"wrapS": 10497,
			"wrapT": 10497
		}
	],
	"scenes": [
		{
			"name":"defaultScene",
			"nodes": [
				1
			]
		}
	],
	"scene": 0,
	"textures": [
		{
			"sampler": 0,
			"source": 0
		},
		{
			"sampler": 0,
			"source": 1
		}
	]
}
