{
  "accessors": [
    {
      "name": "base_base_1_0_positions",
      "componentType": 5126,
      "count": 744,
      "min": [
        -4.125999927520752,
        4.768369876728684e-7,
        -4.761539936065674
      ],
      "max": [
        4.125999927520752,
        1.034000039100647,
        4.761509895324707
      ],
      "type": "VEC3",
      "bufferView": 0,
      "byteOffset": 0
    },
    {
      "name": "base_base_1_0_normals",
      "componentType": 5126,
      "count": 744,
      "min": [
        -0.9999999403953552,
        -1,
        -0.9999832510948181
      ],
      "max": [
        0.9999999403953552,
        1,
        0.9999833106994629
      ],
      "type": "VEC3",
      "bufferView": 1,
      "byteOffset": 0
    },
    {
      "name": "base_base_1_0_texcoords",
      "componentType": 5126,
      "count": 744,
      "min": [
        0.029131999239325523,
        0.025529000908136368
      ],
      "max": [
        0.9710109829902649,
        0.9889100193977356
      ],
      "type": "VEC2",
      "bufferView": 2,
      "byteOffset": 0
    },
    {
      "name": "base_base_1_0_indices",
      "componentType": 5123,
      "count": 3000,
      "min": [
        0
      ],
      "max": [
        743
      ],
      "type": "SCALAR",
      "bufferView": 3,
      "byteOffset": 0
    },
    {
      "name": "head_head_1_0_positions",
      "componentType": 5126,
      "count": 21276,
      "min": [
        -3.738179922103882,
        6.950079917907715,
        -3.2463901042938232
      ],
      "max": [
        3.738179922103882,
        14.426400184631348,
        3.403860092163086
      ],
      "type": "VEC3",
      "bufferView": 0,
      "byteOffset": 8928
    },
    {
      "name": "head_head_1_0_normals",
      "componentType": 5126,
      "count": 21276,
      "min": [
        -1,
        -1,
        -1
      ],
      "max": [
        1,
        1,
        1
      ],
      "type": "VEC3",
      "bufferView": 1,
      "byteOffset": 8928
    },
    {
      "name": "head_head_1_0_texcoords",
      "componentType": 5126,
      "count": 21276,
      "min": [
        0,
        0.003496000077575445
      ],
      "max": [
        1,
        0.990136981010437
      ],
      "type": "VEC2",
      "bufferView": 2,
      "byteOffset": 5952
    },
    {
      "name": "head_head_1_0_indices",
      "componentType": 5123,
      "count": 121110,
      "min": [
        0
      ],
      "max": [
        21275
      ],
      "type": "SCALAR",
      "bufferView": 3,
      "byteOffset": 6000
    },
    {
      "name": "body_body_1_0_positions",
      "componentType": 5126,
      "count": 19679,
      "min": [
        -4.0926899909973145,
        1.0293300151824951,
        -1.6235699653625488
      ],
      "max": [
        4.0926899909973145,
        7.567850112915039,
        1.6224299669265747
      ],
      "type": "VEC3",
      "bufferView": 0,
      "byteOffset": 264240
    },
    {
      "name": "body_body_1_0_normals",
      "componentType": 5126,
      "count": 19679,
      "min": [
        -0.9999995231628418,
        -0.9999970197677612,
        -0.999912679195404
      ],
      "max": [
        0.9999995231628418,
        0.9999989867210388,
        0.999997615814209
      ],
      "type": "VEC3",
      "bufferView": 1,
      "byteOffset": 264240
    },
    {
      "name": "body_body_1_0_texcoords",
      "componentType": 5126,
      "count": 19679,
      "min": [
        0.014795499853789806,
        0.014255999587476254
      ],
      "max": [
        0.9851229786872864,
        0.9892081022262573
      ],
      "type": "VEC2",
      "bufferView": 2,
      "byteOffset": 176160
    },
    {
      "name": "body_body_1_0_indices",
      "componentType": 5123,
      "count": 113136,
      "min": [
        0
      ],
      "max": [
        19678
      ],
      "type": "SCALAR",
      "bufferView": 3,
      "byteOffset": 248220
    }
  ],
  "asset": {
    "generator": "obj2gltf",
    "version": "2.0"
  },
  "buffers": [
    {
      "name": "MeetMat",
      "byteLength": 1808860,
      "uri": "MeetMat.bin"
    }
  ],
  "bufferViews": [
    {
      "name": "bufferView_0",
      "buffer": 0,
      "byteLength": 500388,
      "byteOffset": 0,
      "byteStride": 12,
      "target": 34962
    },
    {
      "name": "bufferView_1",
      "buffer": 0,
      "byteLength": 500388,
      "byteOffset": 500388,
      "byteStride": 12,
      "target": 34962
    },
    {
      "name": "bufferView_2",
      "buffer": 0,
      "byteLength": 333592,
      "byteOffset": 1000776,
      "byteStride": 8,
      "target": 34962
    },
    {
      "name": "bufferView_3",
      "buffer": 0,
      "byteLength": 474492,
      "byteOffset": 1334368,
      "target": 34963
    }
  ],
  "materials": [
    {
      "name": "03_Base",
      "pbrMetallicRoughness": {
        "baseColorFactor": [
          1,
          1,
          1,
          1
        ],
        "metallicFactor": 0,
        "roughnessFactor": 1
      },
      "emissiveFactor": [
        0,
        0,
        0
      ],
      "alphaMode": "OPAQUE",
      "doubleSided": false
    },
    {
      "name": "head",
      "pbrMetallicRoughness": {
        "baseColorFactor": [
          0.588235,
          0.588235,
          0.588235,
          1
        ],
        "metallicFactor": 0,
        "roughnessFactor": 1
      },
      "emissiveFactor": [
        0,
        0,
        0
      ],
      "alphaMode": "OPAQUE",
      "doubleSided": false
    },
    {
      "name": "body",
      "pbrMetallicRoughness": {
        "baseColorFactor": [
          0.588235,
          0.588235,
          0.588235,
          1
        ],
        "metallicFactor": 0,
        "roughnessFactor": 1
      },
      "emissiveFactor": [
        0,
        0,
        0
      ],
      "alphaMode": "OPAQUE",
      "doubleSided": false
    }
  ],
  "meshes": [
    {
      "name": "base_base_1",
      "primitives": [
        {
          "attributes": {
            "POSITION": 0,
            "NORMAL": 1,
            "TEXCOORD_0": 2
          },
          "indices": 3,
          "material": 0,
          "mode": 4
        }
      ]
    },
    {
      "name": "head",
      "primitives": [
        {
          "attributes": {
            "POSITION": 4,
            "NORMAL": 5,
            "TEXCOORD_0": 6
          },
          "indices": 7,
          "material": 1,
          "mode": 4
        }
      ]
    },
    {
      "name": "body",
      "primitives": [
        {
          "attributes": {
            "POSITION": 8,
            "NORMAL": 9,
            "TEXCOORD_0": 10
          },
          "indices": 11,
          "material": 2,
          "mode": 4
        }
      ]
    }
  ],
  "nodes": [
    {
      "name": "base_base",
      "mesh": 0
    },
    {
      "name": "head",
      "mesh": 1
    },
    {
      "name": "body",
      "mesh": 2
    }
  ],
  "scene": 0,
  "scenes": [
    {
      "nodes": [
        0,
        1,
        2
      ]
    }
  ]
}
