{
  "accessors": [
    {
      "name": "Node-Mesh_0_positions",
      "componentType": 5126,
      "count": 20753,
      "min": [
        -33.46514892578125,
        0,
        -33.26446533203125
      ],
      "max": [
        33.46514892578125,
        219.25851440429688,
        33.26446533203125
      ],
      "type": "VEC3",
      "bufferView": 0,
      "byteOffset": 0
    },
    {
      "name": "Node-Mesh_0_texcoords",
      "componentType": 5126,
      "count": 20753,
      "min": [
        0.0013022799976170063,
        0.0011869999580085278
      ],
      "max": [
        0.9986870288848877,
        0.9988256692886353
      ],
      "type": "VEC2",
      "bufferView": 1,
      "byteOffset": 0
    },
    {
      "name": "Node-Mesh_0_indices",
      "componentType": 5123,
      "count": 109866,
      "min": [
        0
      ],
      "max": [
        20752
      ],
      "type": "SCALAR",
      "bufferView": 2,
      "byteOffset": 0
    }
  ],
  "asset": {
    "generator": "obj2gltf",
    "version": "2.0"
  },
  "buffers": [
    {
      "name": "yuanqisenlin_ranchachunxiangwutangwulongchayinliao_500ml.obj",
      "byteLength": 634792,
      "uri": "yuanqisenlin_ranchachunxiangwutangwulongchayinliao_500ml.obj.bin"
    }
  ],
  "bufferViews": [
    {
      "name": "bufferView_0",
      "buffer": 0,
      "byteLength": 249036,
      "byteOffset": 0,
      "byteStride": 12,
      "target": 34962
    },
    {
      "name": "bufferView_1",
      "buffer": 0,
      "byteLength": 166024,
      "byteOffset": 249036,
      "byteStride": 8,
      "target": 34962
    },
    {
      "name": "bufferView_2",
      "buffer": 0,
      "byteLength": 219732,
      "byteOffset": 415060,
      "target": 34963
    }
  ],
  "images": [
    {
      "name": "yuanqisenlin_ranchachunxiangwutangwulongchayinliao_500ml",
      "uri": "data:image/png;base64,"
    }
  ],
  "materials": [
    {
      "name": "_texture",
      "pbrMetallicRoughness": {
        "baseColorTexture": {
          "index": 0
        },
        "baseColorFactor": [
          1,
          1,
          1,
          1
        ],
        "metallicFactor": 0,
        "roughnessFactor": 1
      },
      "emissiveFactor": [
        0,
        0,
        0
      ],
      "alphaMode": "OPAQUE",
      "doubleSided": false
    }
  ],
  "meshes": [
    {
      "name": "Node-Mesh",
      "primitives": [
        {
          "attributes": {
            "POSITION": 0,
            "TEXCOORD_0": 1
          },
          "indices": 2,
          "material": 0,
          "mode": 4
        }
      ]
    }
  ],
  "nodes": [
    {
      "name": "Node",
      "mesh": 0
    }
  ],
  "samplers": [
    {
      "magFilter": 9729,
      "minFilter": 9986,
      "wrapS": 10497,
      "wrapT": 10497
    }
  ],
  "scene": 0,
  "scenes": [
    {
      "nodes": [
        0
      ]
    }
  ],
  "textures": [
    {
      "name": "yuanqisenlin_ranchachunxiangwutangwulongchayinliao_500ml",
      "sampler": 0,
      "source": 0
    }
  ]
}
